<svg xmlns="http://www.w3.org/2000/svg" fill="none" viewBox="0 0 1024 1024"><path fill="#fff" fill-rule="evenodd" d="M284.4 0h455.2c98.9 0 134.7 10.3 170.9 29.6a201.6 201.6 0 0 1 83.9 83.9c19.3 36.2 29.6 72 29.6 171v455c0 99-10.3 134.8-29.6 171a201.6 201.6 0 0 1-83.9 83.9c-36.2 19.3-72 29.6-171 29.6h-455c-99 0-134.8-10.3-171-29.6a201.6 201.6 0 0 1-83.9-83.9C10.3 874.3 0 838.5 0 739.5v-455c0-99 10.3-134.8 29.6-171a201.6 201.6 0 0 1 83.9-83.9c36.2-19.3 72-29.6 171-29.6Z" clip-rule="evenodd"/><path stroke="#000" stroke-opacity=".1" stroke-width="4" d="M284.4 2h455.2c98.7 0 134.2 10.3 170 29.4a199.6 199.6 0 0 1 83 83c19.1 35.8 29.4 71.3 29.4 170v455.2c0 98.7-10.3 134.2-29.4 170a199.6 199.6 0 0 1-83 83c-35.8 19.1-71.3 29.4-170 29.4H284.4c-98.7 0-134.2-10.3-170-29.4a199.6 199.6 0 0 1-83-83C12.3 873.8 2 838.3 2 739.6V284.4c0-98.7 10.3-134.2 29.4-170a199.6 199.6 0 0 1 83-83C150.2 12.3 185.7 2 284.4 2Z"/><path fill="#E1E8ED" d="M580.5 592.4s22 26.2 43.8 160.8c2.2 14 3.2 28.4 3.4 42.8H784V339.2c-70.2-55.6-166.4-67-282.8-28.2 0 0-86.6-48-98.4-59.8-11.5-11.5-29.7-24.9-19.8 5.6 5.9 17.8 12.3 38 37.8 77.8-55 32.6-72.2 74.9-137 213.5-49.4 105.8-73.5 137.1-59.8 177.6 18.1 53.4 83.6 87.7 140.5 51.4 30.7-22.4 36-62.6 99.6-99.6 58.4-1 116.4-25.6 116.4-85.1Z"/><path fill="#292F33" d="M472.6 282c44.6-41.6 203.9-39.5 311.4 34.2v117.5s-34 23.3-59.9 139.5c-20.9 93.6-100.4 142.4-105.8 145.6-2.7-14.3-5.4-27.1-8-38.5v-.4S665 653 688 524a374.4 374.4 0 0 1 53.8-137.4 294.4 294.4 0 0 0-37.3-29.4l.2.2s-31.9 27.1-41 122.7C653 590 605 639.3 600.9 643.4c-11.5-40-20-50.6-20.4-51l-1.3-3.4s42.8-64 43-124.9c0-26 24.3-104.1 33.4-132.6a282 282 0 0 0-47.5-14.3s-15 46.8-19 94.8-18 78-31.1 99a372 372 0 0 0-2.5-76.6c-2.2-19.7-4-35.3.5-53.4 9-36 14-69.1 14-69.1a353.1 353.1 0 0 0-47.3-.5v.8c-21.4 1.7-48 8-73.8 17.9 2.8 5 17.7 33.4 16.8 47.9l-.3 6.9c-.8 15.9-1.9 36.9-9.7 42-6.2 4.2-10-12.5-13.7-28.8a190 190 0 0 0-5.3-20.1 257 257 0 0 0-16.4-35.1 208 208 0 0 0-26.8 16.4c6.2 5.1 26.8 23.4 26 37a65 65 0 0 0 6.4 24.5c4.1 10.5 7.8 19.9 2.8 23.2-9 6-31-20-37-37s-20-28.6-20-28.6v-.3l.2-.2c.1-7.2 2.6-85 59-92a538 538 0 0 1 41.7-4Z"/><path fill="#292F33" d="M479 468.4a20 20 0 1 1-39.8 0 20 20 0 0 1 39.8 0Zm-146.8-22.7a610 610 0 0 1 19.2-36.3c3.8 2.6 24.3 16.5 30.3 27.6 3.2 5.8 10.9 11 17.8 15.8 7.8 5.4 14.7 10 13.3 14.2-2.8 7.8-31.7-1.6-43-12-11.4-10.4-37.6-9.3-37.6-9.3Zm227.6 198.7s-4-24.4-16-59.4c-11.5-33.3-11.1-35.8-6.8-66.3l.7-4.7c5-35-34-102-44-91-4.1 4.6.6 14.4 6.6 26.8 8.6 17.7 19.6 40.7 11.4 61.2-14 35-6 84 2 106s20.2 45.4 20.2 45.4v.1a93.3 93.3 0 0 0 26-18Zm-51.3 27.4v-.1C495.7 625 466.7 542 413.7 507c-46.5-30.7-88.3-28.3-98-27.3l-18.2 39.1c2.4-.1 88.5-5.3 111.2 24.2 44 57 61.3 80.2 71.2 133.6 9.8-.9 19.4-2.5 28.6-4.8Z"/><path fill="#292F33" d="M376 562c28.9 20 84.8 116.3 85.3 117.2-6.7 4-12.7 8-18.1 12 0 0-27.2-74.2-76.2-97.2a208.8 208.8 0 0 0-96-19l12.8-26.8c3-.3 64-5.7 92.2 13.8Zm47.7 145.7c-2-10.7-21.5-14.6-43-19-17.7-3.5-36.7-7.4-48.2-15.5-10.6-7.6-23.8-25.8-36-42.8-14.4-19.8-27.6-38-34.6-36.5l-5.5 11.4c-30.4 62-43.2 88.4-32.4 120.4 18.1 53.4 83.6 87.7 140.5 51.4a137 137 0 0 0 29-32.7c8-11.4 17-23.9 30.2-36.7ZM627.5 789a284.5 284.5 0 0 0-4.2-41.9C624 747 697 722 721 693s63-89 63-89v102s-19 26-59 47c-25 13.2-95.8 35.5-97.5 36Z"/><path fill="#E1E8ED" d="M469.7 236.9c9 18.5 64.1 28.6 81 96.5 16.7 67.8-50.2 47.2-69.8 13.6-21.8-37.3-29.2-66.6-29.9-90.8-.3-12.8.7-56.6 18.7-19.3Z"/><path fill="#66757F" d="M473.5 265.4c17.7 15.5 39.2 39.6 42.4 63.3 3.3 23.7-18 15.8-27.7-6-9.8-21.7-12-44.4-18.2-51.7-6-7.3 3.5-5.6 3.5-5.6ZM275.6 698.7c0 14-8.6 25.5-19 25.5-10.5 0-19-11.4-19-25.5s8.5-25.6 19-25.6c10.4 0 19 11.5 19 25.6Z"/></svg>
